<?xml version="1.0" standalone="no"?>
<!DOCTYPE svg PUBLIC "-//W3C//DTD SVG 20010904//EN"
 "http://www.w3.org/TR/2001/REC-SVG-20010904/DTD/svg10.dtd">
<svg version="1.0" xmlns="http://www.w3.org/2000/svg"
 width="512.000000pt" height="512.000000pt" viewBox="0 0 512.000000 512.000000"
 preserveAspectRatio="xMidYMid meet">

<g transform="translate(0.000000,512.000000) scale(0.100000,-0.100000)"
fill="#000000" stroke="none">
<path d="M3740 4900 l0 -220 317 0 318 0 -426 -426 -427 -427 -78 59 c-103 78
-149 107 -269 172 -321 173 -642 252 -1022 252 -350 0 -635 -66 -948 -220
-671 -329 -1120 -979 -1195 -1729 -54 -543 114 -1109 458 -1545 71 -91 257
-277 348 -348 436 -344 1002 -512 1545 -458 339 34 692 156 961 331 447 293
777 741 911 1239 62 230 72 306 71 575 0 217 -3 266 -22 370 -66 347 -202 663
-395 919 l-60 78 427 427 426 426 0 -318 0 -317 220 0 220 0 0 690 0 690 -690
0 -690 0 0 -220z m-1335 -1041 c555 -74 1068 -454 1308 -969 163 -350 205
-766 116 -1135 -188 -772 -876 -1315 -1667 -1315 -470 0 -885 172 -1218 504
-332 333 -504 748 -504 1218 0 903 695 1644 1605 1712 72 5 267 -3 360 -15z"/>
</g>
</svg>
