<?xml version="1.0" standalone="no"?>
<!DOCTYPE svg PUBLIC "-//W3C//DTD SVG 20010904//EN"
 "http://www.w3.org/TR/2001/REC-SVG-20010904/DTD/svg10.dtd">
<svg version="1.0" xmlns="http://www.w3.org/2000/svg"
 width="512.000000pt" height="512.000000pt" viewBox="0 0 512.000000 512.000000"
 preserveAspectRatio="xMidYMid meet">

<g transform="translate(0.000000,512.000000) scale(0.100000,-0.100000)"
fill="#000000" stroke="none">
<path d="M2074 4684 c-139 -19 -317 -66 -454 -121 -659 -262 -1105 -840 -1190
-1543 -15 -123 -12 -351 5 -484 49 -372 200 -715 445 -1009 375 -449 981 -700
1589 -656 350 25 686 140 966 333 l110 75 410 -408 c226 -225 424 -416 442
-425 41 -21 125 -21 166 0 45 23 86 63 108 106 23 46 25 127 3 171 -9 18 -200
217 -426 443 l-410 411 54 74 c371 506 470 1185 258 1782 -238 674 -836 1158
-1549 1252 -132 18 -393 17 -527 -1z m407 -425 c372 -37 664 -174 920 -429
215 -215 344 -454 411 -764 32 -147 31 -436 -1 -586 -32 -151 -74 -268 -142
-400 -339 -655 -1114 -960 -1820 -714 -220 76 -389 184 -559 354 -127 126
-213 245 -285 394 -204 420 -201 914 7 1330 177 354 477 616 851 742 209 70
412 95 618 73z"/>
</g>
</svg>
