<?xml version="1.0" standalone="no"?>
<!DOCTYPE svg PUBLIC "-//W3C//DTD SVG 20010904//EN"
 "http://www.w3.org/TR/2001/REC-SVG-20010904/DTD/svg10.dtd">
<svg version="1.0" xmlns="http://www.w3.org/2000/svg"
 width="512.000000pt" height="512.000000pt" viewBox="0 0 512.000000 512.000000"
 preserveAspectRatio="xMidYMid meet">

<g transform="translate(0.000000,512.000000) scale(0.100000,-0.100000)"
fill="#000000" stroke="none">
<path d="M2378 5109 c-566 -55 -1091 -388 -1387 -881 -326 -545 -345 -1227
-49 -1787 274 -519 768 -870 1356 -961 l72 -12 0 -294 0 -294 -255 0 -255 0 0
-185 0 -185 255 0 255 0 0 -255 0 -255 190 0 190 0 0 255 0 255 255 0 255 0 0
185 0 185 -255 0 -255 0 0 294 0 294 73 12 c587 91 1081 442 1355 961 296 560
277 1242 -49 1787 -364 606 -1045 949 -1751 881z m465 -390 c584 -118 1023
-558 1148 -1149 32 -150 32 -410 0 -560 -125 -593 -557 -1025 -1151 -1151 -86
-18 -137 -22 -280 -22 -195 0 -305 17 -475 75 -416 141 -761 485 -903 903 -57
168 -75 280 -75 475 0 195 18 307 75 475 179 526 659 911 1217 975 113 13 327
3 444 -21z"/>
</g>
</svg>
